<svg width="38" height="44" viewBox="0 0 38 44" fill="none" xmlns="http://www.w3.org/2000/svg">
<path d="M31.4339 23.2525C31.4127 19.6459 33.0484 16.9277 36.3514 14.9235C34.504 12.2793 31.7092 10.8251 28.025 10.5448C24.5368 10.2698 20.7203 12.5755 19.3229 12.5755C17.8461 12.5755 14.469 10.64 11.8117 10.64C6.3279 10.7246 0.5 15.0081 0.5 23.7231C0.5 26.2985 0.971101 28.9585 1.9133 31.6978C3.1731 35.3044 7.71473 44.1411 12.4522 43.9983C14.9295 43.9401 16.6815 42.2426 19.9051 42.2426C23.0335 42.2426 24.6532 43.9983 27.4163 43.9983C32.1961 43.9295 36.3037 35.8967 37.5 32.2795C31.0898 29.2599 31.4339 23.4376 31.4339 23.2525V23.2525ZM25.8707 7.12328C28.5544 3.93975 28.3109 1.04179 28.2315 0C25.8601 0.137495 23.1182 1.61292 21.5567 3.42679C19.8363 5.37287 18.8253 7.77902 19.0423 10.4919C21.6043 10.6876 23.9439 9.37079 25.8707 7.12328V7.12328Z" fill="#121212"/>
</svg>
