<svg width="300" height="78" viewBox="0 0 300 78" fill="none" xmlns="http://www.w3.org/2000/svg">
<path d="M78.4339 40.2525C78.4127 36.6459 80.0484 33.9277 83.3514 31.9235C81.504 29.2793 78.7092 27.8251 75.025 27.5448C71.5368 27.2698 67.7203 29.5755 66.3229 29.5755C64.8461 29.5755 61.469 27.64 58.8117 27.64C53.3279 27.7246 47.5 32.0081 47.5 40.7231C47.5 43.2985 47.9711 45.9585 48.9133 48.6978C50.1731 52.3044 54.7147 61.1411 59.4522 60.9983C61.9295 60.9401 63.6815 59.2426 66.9051 59.2426C70.0335 59.2426 71.6532 60.9983 74.4163 60.9983C79.1961 60.9295 83.3037 52.8967 84.5 49.2795C78.0898 46.2599 78.4339 40.4376 78.4339 40.2525ZM72.8707 24.1233C75.5544 20.9398 75.3109 18.0418 75.2315 17C72.8601 17.1375 70.1182 18.6129 68.5567 20.4268C66.8363 22.3729 65.8253 24.779 66.0423 27.4919C68.6043 27.6876 70.9439 26.3708 72.8707 24.1233Z" fill="#121212"/>
<path d="M106.324 34V22.8H110.884C112.079 22.8 113.124 23.04 114.02 23.52C114.927 23.9893 115.631 24.6453 116.132 25.488C116.633 26.3307 116.884 27.3013 116.884 28.4C116.884 29.4987 116.633 30.4693 116.132 31.312C115.631 32.1547 114.927 32.816 114.02 33.296C113.124 33.7653 112.079 34 110.884 34H106.324ZM107.508 32.976H110.82C111.812 32.976 112.671 32.784 113.396 32.4C114.132 32.0053 114.703 31.4667 115.108 30.784C115.513 30.0907 115.716 29.296 115.716 28.4C115.716 27.4933 115.513 26.6987 115.108 26.016C114.703 25.3333 114.132 24.8 113.396 24.416C112.671 24.0213 111.812 23.824 110.82 23.824H107.508V32.976ZM122.727 34.08C121.916 34.08 121.185 33.8987 120.535 33.536C119.895 33.1627 119.388 32.656 119.015 32.016C118.641 31.3653 118.455 30.624 118.455 29.792C118.455 28.9493 118.641 28.208 119.015 27.568C119.388 26.928 119.895 26.4267 120.535 26.064C121.175 25.7013 121.905 25.52 122.727 25.52C123.559 25.52 124.295 25.7013 124.935 26.064C125.585 26.4267 126.092 26.928 126.455 27.568C126.828 28.208 127.015 28.9493 127.015 29.792C127.015 30.624 126.828 31.3653 126.455 32.016C126.092 32.656 125.585 33.1627 124.935 33.536C124.284 33.8987 123.548 34.08 122.727 34.08ZM122.727 33.072C123.335 33.072 123.873 32.9387 124.343 32.672C124.812 32.3947 125.18 32.0107 125.447 31.52C125.724 31.0187 125.863 30.4427 125.863 29.792C125.863 29.1307 125.724 28.5547 125.447 28.064C125.18 27.5733 124.812 27.1947 124.343 26.928C123.873 26.6507 123.34 26.512 122.743 26.512C122.145 26.512 121.612 26.6507 121.143 26.928C120.673 27.1947 120.3 27.5733 120.023 28.064C119.745 28.5547 119.607 29.1307 119.607 29.792C119.607 30.4427 119.745 31.0187 120.023 31.52C120.3 32.0107 120.673 32.3947 121.143 32.672C121.612 32.9387 122.14 33.072 122.727 33.072ZM130.812 34L127.644 25.6H128.732L131.612 33.392H131.116L134.076 25.6H135.052L137.98 33.392H137.484L140.412 25.6H141.452L138.268 34H137.196L134.38 26.672H134.716L131.884 34H130.812ZM147.45 25.52C148.133 25.52 148.73 25.6533 149.242 25.92C149.765 26.176 150.17 26.5707 150.458 27.104C150.757 27.6373 150.906 28.3093 150.906 29.12V34H149.77V29.232C149.77 28.3467 149.546 27.68 149.098 27.232C148.661 26.7733 148.042 26.544 147.242 26.544C146.645 26.544 146.122 26.6667 145.674 26.912C145.237 27.1467 144.895 27.4933 144.65 27.952C144.415 28.4 144.298 28.944 144.298 29.584V34H143.162V25.6H144.25V27.904L144.074 27.472C144.341 26.864 144.767 26.3893 145.354 26.048C145.941 25.696 146.639 25.52 147.45 25.52ZM153.975 34V22.128H155.111V34H153.975ZM161.696 34.08C160.885 34.08 160.154 33.8987 159.504 33.536C158.864 33.1627 158.357 32.656 157.984 32.016C157.61 31.3653 157.424 30.624 157.424 29.792C157.424 28.9493 157.61 28.208 157.984 27.568C158.357 26.928 158.864 26.4267 159.504 26.064C160.144 25.7013 160.874 25.52 161.696 25.52C162.528 25.52 163.264 25.7013 163.904 26.064C164.554 26.4267 165.061 26.928 165.424 27.568C165.797 28.208 165.984 28.9493 165.984 29.792C165.984 30.624 165.797 31.3653 165.424 32.016C165.061 32.656 164.554 33.1627 163.904 33.536C163.253 33.8987 162.517 34.08 161.696 34.08ZM161.696 33.072C162.304 33.072 162.842 32.9387 163.312 32.672C163.781 32.3947 164.149 32.0107 164.416 31.52C164.693 31.0187 164.832 30.4427 164.832 29.792C164.832 29.1307 164.693 28.5547 164.416 28.064C164.149 27.5733 163.781 27.1947 163.312 26.928C162.842 26.6507 162.309 26.512 161.712 26.512C161.114 26.512 160.581 26.6507 160.112 26.928C159.642 27.1947 159.269 27.5733 158.992 28.064C158.714 28.5547 158.576 29.1307 158.576 29.792C158.576 30.4427 158.714 31.0187 158.992 31.52C159.269 32.0107 159.642 32.3947 160.112 32.672C160.581 32.9387 161.109 33.072 161.696 33.072ZM173.52 34V32.144L173.472 31.84V28.736C173.472 28.0213 173.269 27.472 172.864 27.088C172.469 26.704 171.877 26.512 171.088 26.512C170.544 26.512 170.027 26.6027 169.536 26.784C169.045 26.9653 168.629 27.2053 168.288 27.504L167.776 26.656C168.203 26.2933 168.715 26.016 169.312 25.824C169.909 25.6213 170.539 25.52 171.2 25.52C172.288 25.52 173.125 25.792 173.712 26.336C174.309 26.8693 174.608 27.6853 174.608 28.784V34H173.52ZM170.624 34.08C169.995 34.08 169.445 33.9787 168.976 33.776C168.517 33.5627 168.165 33.2747 167.92 32.912C167.675 32.5387 167.552 32.112 167.552 31.632C167.552 31.1947 167.653 30.8 167.856 30.448C168.069 30.0853 168.411 29.7973 168.88 29.584C169.36 29.36 170 29.248 170.8 29.248H173.696V30.096H170.832C170.021 30.096 169.456 30.24 169.136 30.528C168.827 30.816 168.672 31.1733 168.672 31.6C168.672 32.08 168.859 32.464 169.232 32.752C169.605 33.04 170.128 33.184 170.8 33.184C171.44 33.184 171.989 33.04 172.448 32.752C172.917 32.4533 173.259 32.0267 173.472 31.472L173.728 32.256C173.515 32.8107 173.141 33.2533 172.608 33.584C172.085 33.9147 171.424 34.08 170.624 34.08ZM181.037 34.08C180.237 34.08 179.517 33.8987 178.877 33.536C178.248 33.1733 177.752 32.672 177.389 32.032C177.027 31.3813 176.845 30.6347 176.845 29.792C176.845 28.9387 177.027 28.192 177.389 27.552C177.752 26.912 178.248 26.416 178.877 26.064C179.517 25.7013 180.237 25.52 181.037 25.52C181.773 25.52 182.429 25.6853 183.005 26.016C183.592 26.3467 184.056 26.832 184.397 27.472C184.749 28.1013 184.925 28.8747 184.925 29.792C184.925 30.6987 184.755 31.472 184.413 32.112C184.072 32.752 183.608 33.2427 183.021 33.584C182.445 33.9147 181.784 34.08 181.037 34.08ZM181.117 33.072C181.715 33.072 182.248 32.9387 182.717 32.672C183.197 32.3947 183.571 32.0107 183.837 31.52C184.115 31.0187 184.253 30.4427 184.253 29.792C184.253 29.1307 184.115 28.5547 183.837 28.064C183.571 27.5733 183.197 27.1947 182.717 26.928C182.248 26.6507 181.715 26.512 181.117 26.512C180.531 26.512 180.003 26.6507 179.533 26.928C179.064 27.1947 178.691 27.5733 178.413 28.064C178.136 28.5547 177.997 29.1307 177.997 29.792C177.997 30.4427 178.136 31.0187 178.413 31.52C178.691 32.0107 179.064 32.3947 179.533 32.672C180.003 32.9387 180.531 33.072 181.117 33.072ZM184.285 34V31.472L184.397 29.776L184.237 28.08V22.128H185.373V34H184.285ZM196.149 34.08C195.338 34.08 194.607 33.8987 193.957 33.536C193.317 33.1627 192.81 32.656 192.437 32.016C192.063 31.3653 191.877 30.624 191.877 29.792C191.877 28.9493 192.063 28.208 192.437 27.568C192.81 26.928 193.317 26.4267 193.957 26.064C194.597 25.7013 195.327 25.52 196.149 25.52C196.981 25.52 197.717 25.7013 198.357 26.064C199.007 26.4267 199.514 26.928 199.877 27.568C200.25 28.208 200.437 28.9493 200.437 29.792C200.437 30.624 200.25 31.3653 199.877 32.016C199.514 32.656 199.007 33.1627 198.357 33.536C197.706 33.8987 196.97 34.08 196.149 34.08ZM196.149 33.072C196.757 33.072 197.295 32.9387 197.765 32.672C198.234 32.3947 198.602 32.0107 198.869 31.52C199.146 31.0187 199.285 30.4427 199.285 29.792C199.285 29.1307 199.146 28.5547 198.869 28.064C198.602 27.5733 198.234 27.1947 197.765 26.928C197.295 26.6507 196.762 26.512 196.165 26.512C195.567 26.512 195.034 26.6507 194.565 26.928C194.095 27.1947 193.722 27.5733 193.445 28.064C193.167 28.5547 193.029 29.1307 193.029 29.792C193.029 30.4427 193.167 31.0187 193.445 31.52C193.722 32.0107 194.095 32.3947 194.565 32.672C195.034 32.9387 195.562 33.072 196.149 33.072ZM207.044 25.52C207.727 25.52 208.324 25.6533 208.836 25.92C209.359 26.176 209.764 26.5707 210.052 27.104C210.351 27.6373 210.5 28.3093 210.5 29.12V34H209.364V29.232C209.364 28.3467 209.14 27.68 208.692 27.232C208.255 26.7733 207.636 26.544 206.836 26.544C206.239 26.544 205.716 26.6667 205.268 26.912C204.831 27.1467 204.489 27.4933 204.244 27.952C204.009 28.4 203.892 28.944 203.892 29.584V34H202.756V25.6H203.844V27.904L203.668 27.472C203.935 26.864 204.361 26.3893 204.948 26.048C205.535 25.696 206.233 25.52 207.044 25.52ZM220.412 34.08C219.623 34.08 219.015 33.8667 218.588 33.44C218.161 33.0133 217.948 32.4107 217.948 31.632V23.744H219.084V31.568C219.084 32.0587 219.207 32.4373 219.452 32.704C219.708 32.9707 220.071 33.104 220.54 33.104C221.041 33.104 221.457 32.96 221.788 32.672L222.188 33.488C221.964 33.6907 221.692 33.84 221.372 33.936C221.063 34.032 220.743 34.08 220.412 34.08ZM216.444 26.544V25.6H221.644V26.544H216.444ZM228.544 25.52C229.227 25.52 229.824 25.6533 230.336 25.92C230.859 26.176 231.264 26.5707 231.552 27.104C231.851 27.6373 232 28.3093 232 29.12V34H230.864V29.232C230.864 28.3467 230.64 27.68 230.192 27.232C229.755 26.7733 229.136 26.544 228.336 26.544C227.739 26.544 227.216 26.6667 226.768 26.912C226.331 27.1467 225.989 27.4933 225.744 27.952C225.509 28.4 225.392 28.944 225.392 29.584V34H224.256V22.128H225.392V27.904L225.168 27.472C225.435 26.864 225.861 26.3893 226.448 26.048C227.035 25.696 227.733 25.52 228.544 25.52ZM238.636 34.08C237.762 34.08 236.994 33.8987 236.332 33.536C235.671 33.1627 235.154 32.656 234.78 32.016C234.407 31.3653 234.22 30.624 234.22 29.792C234.22 28.96 234.396 28.224 234.748 27.584C235.111 26.944 235.602 26.4427 236.22 26.08C236.85 25.7067 237.554 25.52 238.332 25.52C239.122 25.52 239.82 25.7013 240.428 26.064C241.047 26.416 241.532 26.9173 241.884 27.568C242.236 28.208 242.412 28.9493 242.412 29.792C242.412 29.8453 242.407 29.904 242.396 29.968C242.396 30.0213 242.396 30.08 242.396 30.144H235.084V29.296H241.788L241.34 29.632C241.34 29.024 241.207 28.4853 240.94 28.016C240.684 27.536 240.332 27.1627 239.884 26.896C239.436 26.6293 238.919 26.496 238.332 26.496C237.756 26.496 237.239 26.6293 236.78 26.896C236.322 27.1627 235.964 27.536 235.708 28.016C235.452 28.496 235.324 29.0453 235.324 29.664V29.84C235.324 30.48 235.463 31.0453 235.74 31.536C236.028 32.016 236.423 32.3947 236.924 32.672C237.436 32.9387 238.018 33.072 238.668 33.072C239.18 33.072 239.655 32.9813 240.092 32.8C240.54 32.6187 240.924 32.3413 241.244 31.968L241.884 32.704C241.511 33.152 241.042 33.4933 240.476 33.728C239.922 33.9627 239.308 34.08 238.636 34.08ZM104.42 56L109.46 44.8H111.508L116.564 56H114.388L110.052 45.904H110.884L106.564 56H104.42ZM106.74 53.408L107.3 51.776H113.348L113.908 53.408H106.74ZM122.532 56.112C121.839 56.112 121.204 55.952 120.628 55.632C120.063 55.312 119.61 54.832 119.268 54.192C118.938 53.5413 118.772 52.72 118.772 51.728C118.772 50.7253 118.932 49.904 119.252 49.264C119.583 48.624 120.031 48.1493 120.596 47.84C121.162 47.52 121.807 47.36 122.532 47.36C123.375 47.36 124.116 47.5413 124.756 47.904C125.407 48.2667 125.919 48.7733 126.292 49.424C126.676 50.0747 126.868 50.8427 126.868 51.728C126.868 52.6133 126.676 53.3867 126.292 54.048C125.919 54.6987 125.407 55.2053 124.756 55.568C124.116 55.9307 123.375 56.112 122.532 56.112ZM117.796 59.104V47.456H119.7V49.472L119.636 51.744L119.796 54.016V59.104H117.796ZM122.308 54.4C122.788 54.4 123.215 54.2933 123.588 54.08C123.972 53.8667 124.276 53.5573 124.5 53.152C124.724 52.7467 124.836 52.272 124.836 51.728C124.836 51.1733 124.724 50.6987 124.5 50.304C124.276 49.8987 123.972 49.5893 123.588 49.376C123.215 49.1627 122.788 49.056 122.308 49.056C121.828 49.056 121.396 49.1627 121.012 49.376C120.628 49.5893 120.324 49.8987 120.1 50.304C119.876 50.6987 119.764 51.1733 119.764 51.728C119.764 52.272 119.876 52.7467 120.1 53.152C120.324 53.5573 120.628 53.8667 121.012 54.08C121.396 54.2933 121.828 54.4 122.308 54.4ZM133.501 56.112C132.808 56.112 132.173 55.952 131.597 55.632C131.032 55.312 130.578 54.832 130.237 54.192C129.906 53.5413 129.741 52.72 129.741 51.728C129.741 50.7253 129.901 49.904 130.221 49.264C130.552 48.624 131 48.1493 131.565 47.84C132.13 47.52 132.776 47.36 133.501 47.36C134.344 47.36 135.085 47.5413 135.725 47.904C136.376 48.2667 136.888 48.7733 137.261 49.424C137.645 50.0747 137.837 50.8427 137.837 51.728C137.837 52.6133 137.645 53.3867 137.261 54.048C136.888 54.6987 136.376 55.2053 135.725 55.568C135.085 55.9307 134.344 56.112 133.501 56.112ZM128.765 59.104V47.456H130.669V49.472L130.605 51.744L130.765 54.016V59.104H128.765ZM133.277 54.4C133.757 54.4 134.184 54.2933 134.557 54.08C134.941 53.8667 135.245 53.5573 135.469 53.152C135.693 52.7467 135.805 52.272 135.805 51.728C135.805 51.1733 135.693 50.6987 135.469 50.304C135.245 49.8987 134.941 49.5893 134.557 49.376C134.184 49.1627 133.757 49.056 133.277 49.056C132.797 49.056 132.365 49.1627 131.981 49.376C131.597 49.5893 131.293 49.8987 131.069 50.304C130.845 50.6987 130.733 51.1733 130.733 51.728C130.733 52.272 130.845 52.7467 131.069 53.152C131.293 53.5573 131.597 53.8667 131.981 54.08C132.365 54.2933 132.797 54.4 133.277 54.4ZM147.82 56.16C146.945 56.16 146.108 56.0373 145.308 55.792C144.508 55.536 143.873 55.2107 143.404 54.816L144.124 53.2C144.572 53.552 145.126 53.8453 145.788 54.08C146.449 54.3147 147.126 54.432 147.82 54.432C148.406 54.432 148.881 54.368 149.244 54.24C149.606 54.112 149.873 53.9413 150.044 53.728C150.214 53.504 150.3 53.2533 150.3 52.976C150.3 52.6347 150.177 52.3627 149.932 52.16C149.686 51.9467 149.366 51.7813 148.972 51.664C148.588 51.536 148.156 51.4187 147.676 51.312C147.206 51.2053 146.732 51.0827 146.252 50.944C145.782 50.7947 145.35 50.608 144.956 50.384C144.572 50.1493 144.257 49.84 144.012 49.456C143.766 49.072 143.644 48.5813 143.644 47.984C143.644 47.376 143.804 46.8213 144.124 46.32C144.454 45.808 144.95 45.4027 145.612 45.104C146.284 44.7947 147.132 44.64 148.156 44.64C148.828 44.64 149.494 44.7253 150.156 44.896C150.817 45.0667 151.393 45.312 151.884 45.632L151.228 47.248C150.726 46.9493 150.209 46.7307 149.676 46.592C149.142 46.4427 148.63 46.368 148.14 46.368C147.564 46.368 147.094 46.4373 146.732 46.576C146.38 46.7147 146.118 46.896 145.948 47.12C145.788 47.344 145.708 47.6 145.708 47.888C145.708 48.2293 145.825 48.5067 146.06 48.72C146.305 48.9227 146.62 49.0827 147.004 49.2C147.398 49.3173 147.836 49.4347 148.316 49.552C148.796 49.6587 149.27 49.7813 149.74 49.92C150.22 50.0587 150.652 50.24 151.036 50.464C151.43 50.688 151.745 50.992 151.98 51.376C152.225 51.76 152.348 52.2453 152.348 52.832C152.348 53.4293 152.182 53.984 151.852 54.496C151.532 54.9973 151.036 55.4027 150.364 55.712C149.692 56.0107 148.844 56.16 147.82 56.16ZM157.434 56.112C156.496 56.112 155.77 55.872 155.258 55.392C154.746 54.9013 154.49 54.1813 154.49 53.232V45.568H156.49V53.184C156.49 53.5893 156.592 53.904 156.794 54.128C157.008 54.352 157.301 54.464 157.674 54.464C158.122 54.464 158.496 54.3467 158.794 54.112L159.354 55.536C159.12 55.728 158.832 55.872 158.49 55.968C158.149 56.064 157.797 56.112 157.434 56.112ZM153.082 49.12V47.52H158.778V49.12H153.082ZM164.558 56.112C163.684 56.112 162.905 55.9253 162.222 55.552C161.54 55.168 161.001 54.6453 160.606 53.984C160.212 53.3227 160.014 52.5707 160.014 51.728C160.014 50.8747 160.212 50.1227 160.606 49.472C161.001 48.8107 161.54 48.2933 162.222 47.92C162.905 47.5467 163.684 47.36 164.558 47.36C165.444 47.36 166.228 47.5467 166.91 47.92C167.604 48.2933 168.142 48.8053 168.526 49.456C168.921 50.1067 169.118 50.864 169.118 51.728C169.118 52.5707 168.921 53.3227 168.526 53.984C168.142 54.6453 167.604 55.168 166.91 55.552C166.228 55.9253 165.444 56.112 164.558 56.112ZM164.558 54.4C165.049 54.4 165.486 54.2933 165.87 54.08C166.254 53.8667 166.553 53.5573 166.766 53.152C166.99 52.7467 167.102 52.272 167.102 51.728C167.102 51.1733 166.99 50.6987 166.766 50.304C166.553 49.8987 166.254 49.5893 165.87 49.376C165.486 49.1627 165.054 49.056 164.574 49.056C164.084 49.056 163.646 49.1627 163.262 49.376C162.889 49.5893 162.59 49.8987 162.366 50.304C162.142 50.6987 162.03 51.1733 162.03 51.728C162.03 52.272 162.142 52.7467 162.366 53.152C162.59 53.5573 162.889 53.8667 163.262 54.08C163.646 54.2933 164.078 54.4 164.558 54.4ZM171.031 56V47.456H172.935V49.808L172.711 49.12C172.967 48.544 173.367 48.1067 173.911 47.808C174.465 47.5093 175.153 47.36 175.975 47.36V49.264C175.889 49.2427 175.809 49.232 175.735 49.232C175.66 49.2213 175.585 49.216 175.511 49.216C174.753 49.216 174.151 49.44 173.703 49.888C173.255 50.3253 173.031 50.9813 173.031 51.856V56H171.031ZM181.609 56.112C180.66 56.112 179.828 55.9253 179.113 55.552C178.409 55.168 177.86 54.6453 177.465 53.984C177.081 53.3227 176.889 52.5707 176.889 51.728C176.889 50.8747 177.076 50.1227 177.449 49.472C177.833 48.8107 178.356 48.2933 179.017 47.92C179.689 47.5467 180.452 47.36 181.305 47.36C182.137 47.36 182.879 47.5413 183.529 47.904C184.18 48.2667 184.692 48.7787 185.065 49.44C185.439 50.1013 185.625 50.88 185.625 51.776C185.625 51.8613 185.62 51.9573 185.609 52.064C185.609 52.1707 185.604 52.272 185.593 52.368H178.473V51.04H184.537L183.753 51.456C183.764 50.9653 183.663 50.5333 183.449 50.16C183.236 49.7867 182.943 49.4933 182.569 49.28C182.207 49.0667 181.785 48.96 181.305 48.96C180.815 48.96 180.383 49.0667 180.009 49.28C179.647 49.4933 179.359 49.792 179.145 50.176C178.943 50.5493 178.841 50.992 178.841 51.504V51.824C178.841 52.336 178.959 52.7893 179.193 53.184C179.428 53.5787 179.759 53.8827 180.185 54.096C180.612 54.3093 181.103 54.416 181.657 54.416C182.137 54.416 182.569 54.3413 182.953 54.192C183.337 54.0427 183.679 53.808 183.977 53.488L185.049 54.72C184.665 55.168 184.18 55.5147 183.593 55.76C183.017 55.9947 182.356 56.112 181.609 56.112Z" fill="#121212"/>
<rect x="0.5" y="0.5" width="299" height="77" rx="38.5" stroke="#121212"/>
</svg>
