<svg width="41" height="44" viewBox="0 0 41 44" fill="none" xmlns="http://www.w3.org/2000/svg">
<g clip-path="url(#clip0_772_25145)">
<path d="M30.2395 28.7254C35.4382 25.8633 39.3792 23.6824 39.7189 23.5128C40.8055 22.9334 41.9277 21.3999 39.7189 20.2086C39.0057 19.834 35.1659 17.721 30.2395 14.9961L23.4102 21.9116L30.2395 28.7252V28.7254Z" fill="#FFD900"/>
<path d="M23.4106 21.9102L1.66504 43.8849C2.17546 43.9527 2.7517 43.817 3.43108 43.4425C4.85743 42.6597 19.9781 34.3801 30.24 28.7255L23.4106 21.9102Z" fill="#F43249"/>
<path d="M23.4102 21.9107L30.2396 15.0292C30.2396 15.0292 4.96019 1.19633 3.4307 0.37976C2.85445 0.0375556 2.2087 -0.064094 1.63086 0.0375556L23.4102 21.9107Z" fill="#00EE76"/>
<path d="M23.4102 21.9102L1.63087 0.0371094C0.746969 0.242014 0 1.02502 0 2.62636V41.2958C0 42.7614 0.578004 43.8171 1.66466 43.9189L23.4102 21.9102Z" fill="#00D3FF"/>
</g>
<defs>
<clipPath id="clip0_772_25145">
<rect width="41" height="44" fill="white"/>
</clipPath>
</defs>
</svg>
