<svg width="14" height="35" viewBox="0 0 14 35" fill="none" xmlns="http://www.w3.org/2000/svg">
<g clip-path="url(#clip0_772_25297)">
<path fill-rule="evenodd" clip-rule="evenodd" d="M8.28421 34.4735V30.3664H9.7491V27.3356H11.7191C12.9742 27.3356 14 26.3097 14 25.0547V9.26339C14 10.5185 12.9742 11.5443 11.7191 11.5443H2.28088C1.02581 11.5443 0 10.5185 0 9.26339V25.0586C0 26.3136 1.02581 27.3394 2.28088 27.3394H4.2509V30.3702H5.71579V34.4774H8.28032L8.28421 34.4735ZM3.66805 5.16403H4.17319V2.7083H3.66805V5.16403ZM9.82681 5.16403H10.3319V2.7083H9.82681V5.16403ZM8.59506 5.16403H9.10019V2.7083H8.59506V5.16403ZM7.36331 5.16403H7.8801V2.7083H7.36331V5.16403ZM6.13156 5.16403H6.64835V2.7083H6.13156V5.16403ZM4.90758 5.16403H5.41271V2.7083H4.90758V5.16403ZM2.50624 9.9123H11.5054C11.859 9.9123 12.1543 9.62476 12.1543 9.26339V0.648904C12.1543 0.295309 11.8551 0 11.5054 0H2.49847C2.14488 0 1.84957 0.299195 1.84957 0.648904V9.26339C1.84957 9.62864 2.14876 9.9123 2.49847 9.9123H2.50624ZM3.82737 5.89065H10.1843C10.7905 5.89065 11.2956 5.38551 11.2956 4.77935V3.09298C11.2956 2.47516 10.7905 1.98168 10.1843 1.98168H3.82348C3.21732 1.98168 2.71218 2.47905 2.71218 3.09298V4.77935C2.71218 5.38551 3.21732 5.89065 3.82348 5.89065H3.82737Z" fill="#275D88"/>
</g>
<defs>
<clipPath id="clip0_772_25297">
<rect width="14" height="34.4735" fill="white"/>
</clipPath>
</defs>
</svg>
