<svg width="186" height="19" viewBox="0 0 186 19" fill="none" xmlns="http://www.w3.org/2000/svg">
<path d="M50.9996 18.6008H47.2997C46.9997 18.6008 46.7997 18.4008 46.7997 18.1008V11.2007H40.2997V18.1008C40.2997 18.4008 40.0997 18.6008 39.7997 18.6008H36.0996C35.7996 18.6008 35.5996 18.4008 35.5996 18.1008V0.800781C35.5996 0.500781 35.7996 0.300781 36.0996 0.300781H39.7997C40.0997 0.300781 40.2997 0.500781 40.2997 0.800781V7.50073H46.7997V0.800781C46.7997 0.500781 46.9997 0.300781 47.2997 0.300781H50.9996C51.2996 0.300781 51.4996 0.500781 51.4996 0.800781V18.1008C51.4996 18.4008 51.2996 18.6008 50.9996 18.6008Z" fill="white"/>
<path d="M60.3001 11.9008H64.5L62.4 5.70074L60.3001 11.9008ZM57.6 18.6008H53.6C53.5 18.6008 53.5 18.6008 53.4 18.6008C53.1 18.5008 53 18.2008 53.1 17.9008L59.6 0.700745C59.7 0.500745 59.9 0.300781 60.1 0.300781H64.6C64.8 0.300781 65 0.400769 65.1 0.600769L71.6 17.8008C71.6 17.9008 71.6 17.9007 71.6 18.0007C71.6 18.3007 71.4 18.5007 71.1 18.5007H67.1C66.9 18.5007 66.7 18.4007 66.6 18.2007L65.5 15.3008H59L58 18.2007C58 18.5007 57.8 18.6008 57.6 18.6008Z" fill="white"/>
<path d="M84.5997 4.80078C84.4997 4.60078 84.3997 4.50078 84.2997 4.30078C84.1997 4.20078 83.9997 4.10073 83.7997 4.00073C83.5997 3.90073 83.3997 3.90076 83.0997 3.90076H77.8997V9.40076H83.0997C83.3997 9.40076 83.5997 9.40078 83.7997 9.30078C83.9997 9.20078 84.0997 9.10073 84.2997 9.00073C84.3997 8.90073 84.4997 8.70073 84.5997 8.50073C84.6997 8.30073 84.6998 8.10078 84.6998 7.80078V5.40076C84.6998 5.30076 84.6997 5.00078 84.5997 4.80078ZM73.7997 0.300781H84.2997C84.6997 0.300781 85.1997 0.300757 85.5997 0.400757C85.9997 0.500757 86.3998 0.500769 86.6998 0.600769C86.9998 0.700769 87.2997 0.800732 87.5997 1.00073C87.8997 1.20073 88.0997 1.30077 88.2997 1.60077C88.6997 2.00077 88.9998 2.60078 89.1998 3.30078C89.3998 4.00078 89.4997 4.70077 89.4997 5.60077V8.00073C89.4997 8.30073 89.4997 8.70073 89.4997 9.00073C89.4997 9.30073 89.3997 9.60076 89.3997 9.90076C89.2997 10.2008 89.2998 10.4007 89.1998 10.7007C89.0998 10.9007 88.9997 11.2008 88.8997 11.4008C88.7997 11.6008 88.5997 11.8007 88.4997 12.0007C88.3997 12.2007 88.1997 12.3008 87.9997 12.4008C87.7997 12.5008 87.5997 12.6008 87.3997 12.8008C87.1997 12.9008 86.8998 13.0007 86.6998 13.0007L89.4997 17.9008C89.5997 18.0008 89.5997 18.1007 89.5997 18.2007C89.5997 18.5007 89.3997 18.7007 89.0997 18.7007H85.1998C84.9998 18.7007 84.7998 18.6008 84.6998 18.4008L81.7997 13.2007H78.0997V18.2007C78.0997 18.5007 77.8997 18.7007 77.5997 18.7007H73.8997C73.5997 18.7007 73.3997 18.5007 73.3997 18.2007V0.900757C73.1997 0.500757 73.4997 0.300781 73.7997 0.300781Z" fill="white"/>
<path d="M95.2997 18.4992C94.8997 18.4992 94.5997 18.3993 94.2997 18.2993C93.9997 18.1993 93.6996 18.0992 93.4996 17.8992C93.1996 17.7992 92.9997 17.5992 92.7997 17.3992C92.5997 17.1992 92.3997 16.9992 92.2997 16.6992C92.1997 16.3992 91.9997 16.1992 91.8997 15.8992C91.7997 15.5992 91.6997 15.1992 91.6997 14.8992C91.6997 14.4992 91.5996 14.0992 91.5996 13.6992V5.39923C91.5996 4.99923 91.5997 4.49924 91.6997 4.09924C91.7997 3.69924 91.7997 3.29921 91.8997 2.99921C91.9997 2.69921 92.0997 2.39924 92.2997 2.09924C92.4997 1.79924 92.5997 1.59923 92.7997 1.39923C92.9997 1.19923 93.1996 0.999231 93.4996 0.899231C93.7996 0.799231 94.0997 0.599207 94.3997 0.499207C94.6997 0.399207 95.0996 0.299255 95.4996 0.299255C95.8996 0.199255 96.2997 0.199219 96.7997 0.199219H105.7C106 0.199219 106.2 0.399219 106.2 0.699219V3.29926C106.2 3.59926 106 3.79926 105.7 3.79926H97.7997C97.4997 3.79926 97.2996 3.79923 97.0996 3.89923C96.8996 3.99923 96.7996 4.09922 96.5996 4.19922C96.4996 4.29922 96.3997 4.49922 96.2997 4.69922C96.1997 4.89922 96.1997 5.09923 96.1997 5.39923V13.6992C96.1997 13.8992 96.1997 14.0992 96.2997 14.1992C96.3997 14.2992 96.3996 14.4992 96.5996 14.5992C96.6996 14.6992 96.6997 14.6993 96.7997 14.7993C96.8997 14.7993 96.8996 14.8992 96.9996 14.8992C97.0996 14.8992 97.1997 14.9992 97.2997 14.9992C97.3997 14.9992 97.4996 14.9992 97.5996 14.9992H103.1V11.1992H100.2C99.8997 11.1992 99.6997 10.9992 99.6997 10.6992V8.59924C99.6997 8.29924 99.8997 8.09924 100.2 8.09924H107.3C107.6 8.09924 107.8 8.29924 107.8 8.59924V18.0992C107.8 18.3992 107.6 18.5992 107.3 18.5992H96.5996C96.0996 18.5992 95.6997 18.5992 95.2997 18.4992Z" fill="white"/>
<path d="M124.4 18.6008H110.9C110.6 18.6008 110.4 18.4008 110.4 18.1008V0.800781C110.4 0.500781 110.6 0.300781 110.9 0.300781H124.4C124.7 0.300781 124.9 0.500781 124.9 0.800781V3.40076C124.9 3.70076 124.7 3.90076 124.4 3.90076H115.1V7.40076H122.3C122.6 7.40076 122.8 7.60076 122.8 7.90076V10.5007C122.8 10.8007 122.6 11.0007 122.3 11.0007H115.1V14.8008H124.4C124.7 14.8008 124.9 15.0008 124.9 15.3008V17.9008C124.9 18.4008 124.7 18.6008 124.4 18.6008Z" fill="white"/>
<path d="M0.5 0H4C4.3 0 4.5 0.2 4.5 0.5V3.10004C4.5 3.40004 4.3 3.60004 4 3.60004H0.5C0.2 3.60004 0 3.40004 0 3.10004V0.5C0 0.3 0.3 0 0.5 0Z" fill="white"/>
<path d="M21.5997 0.600769C20.9997 0.800769 20.3998 1.10073 19.9998 1.50073C19.7998 1.70073 19.5998 1.90074 19.4998 2.20074C19.3998 2.50074 19.1997 2.70073 19.0997 3.00073C18.9997 3.30073 18.8998 3.70073 18.8998 4.00073C18.8998 4.40073 18.7998 4.80074 18.7998 5.20074V9.40076V13.6008C18.7998 14.0008 18.7998 14.4008 18.8998 14.8008C18.8998 15.2008 18.9997 15.5008 19.0997 15.8008C19.1997 16.1008 19.2998 16.4008 19.4998 16.6008C19.6998 16.9008 19.7998 17.1008 19.9998 17.3008C20.3998 17.7008 20.8997 18.0007 21.5997 18.2007C22.1997 18.4007 22.8998 18.5007 23.7998 18.5007H32.9998C33.2998 18.5007 33.4998 18.3007 33.4998 18.0007V15.5007C33.4998 15.2007 33.2998 15.0007 32.9998 15.0007H24.8998C24.6998 15.0007 24.4998 15.0008 24.2998 14.9008C24.0998 14.8008 23.9998 14.8008 23.8998 14.6008C23.7998 14.5008 23.6997 14.4007 23.5997 14.2007C23.4997 14.0007 23.4998 13.9007 23.4998 13.7007V9.40076V5.10077C23.4998 4.90077 23.4997 4.70077 23.5997 4.60077C23.6997 4.40077 23.6998 4.30074 23.8998 4.20074C23.9998 4.10074 24.1998 4.00076 24.2998 3.90076C24.4998 3.80076 24.5998 3.80078 24.8998 3.80078H32.9998C33.2998 3.80078 33.4998 3.60078 33.4998 3.30078V0.800781C33.4998 0.500781 33.2998 0.300781 32.9998 0.300781H23.7998C22.8998 0.300781 22.1997 0.400769 21.5997 0.600769Z" fill="white"/>
<path d="M4.59961 5.80078V18.1008C4.59961 18.4008 4.39961 18.6008 4.09961 18.6008H0.599609C0.299609 18.6008 0.0996094 18.4008 0.0996094 18.1008V5.80078C0.0996094 5.50078 0.299609 5.30078 0.599609 5.30078H4.09961C4.39961 5.30078 4.59961 5.50078 4.59961 5.80078Z" fill="white"/>
<path fill-rule="evenodd" clip-rule="evenodd" d="M16.8005 1.10093C15.7005 3.50093 14.7004 5.60089 13.7004 8.00089C13.6004 8.20089 13.8004 8.40092 14.0004 8.40092H16.0004C16.4004 8.40092 16.5005 8.8009 16.2005 9.2009L7.90044 17.5009C7.40044 18.0009 6.80041 17.5009 7.00041 16.9009C8.10041 14.5009 9.00041 12.4009 10.0004 10.1009C10.1004 9.80093 10.0004 9.7009 9.70042 9.7009H7.70042C7.30042 9.7009 7.20041 9.30092 7.50041 8.90092L15.8005 0.600929C16.5005 0.000928581 17.1005 0.500929 16.8005 1.10093Z" fill="#FFCB00"/>
<path fill-rule="evenodd" clip-rule="evenodd" d="M139.3 6.70074C139.3 6.60074 139.2 6.50076 139.1 6.40076C139 6.30076 138.9 6.30074 138.8 6.20074C138.7 6.20074 138.5 6.10077 138.4 6.10077H135.3V9.50073H138.4C138.6 9.50073 138.7 9.50076 138.8 9.40076C138.9 9.40076 139 9.30075 139.1 9.20074C139.2 9.10074 139.2 9.00076 139.3 8.90076C139.3 8.80076 139.4 8.60073 139.4 8.50073V6.90076C139.3 7.00076 139.3 6.80074 139.3 6.70074ZM177.6 14.9008H175.4C175.2 14.9008 175.1 14.8008 175.1 14.6008V6.20074H172.1C171.9 6.20074 171.8 6.10076 171.8 5.90076V4.30078C171.8 4.10078 171.9 4.00073 172.1 4.00073H180.8C181 4.00073 181.1 4.10078 181.1 4.30078V5.90076C181.1 6.10076 181 6.20074 180.8 6.20074H177.8V14.6008C177.9 14.8008 177.7 14.9008 177.6 14.9008ZM169.7 14.9008H167.2C167.1 14.9008 167 14.8008 166.9 14.8008L163.3 8.40076V14.6008C163.3 14.8008 163.2 14.9008 163 14.9008H160.8C160.6 14.9008 160.5 14.8008 160.5 14.6008V4.30078C160.5 4.10078 160.6 4.00073 160.8 4.00073H163.3C163.4 4.00073 163.5 4.10077 163.6 4.10077L167.2 10.5007V4.30078C167.2 4.10078 167.3 4.00073 167.5 4.00073H169.7C169.9 4.00073 170 4.10078 170 4.30078V14.6008C170 14.8008 169.9 14.9008 169.7 14.9008ZM158.2 14.9008H156C155.8 14.9008 155.7 14.8008 155.7 14.6008V4.30078C155.7 4.10078 155.8 4.00073 156 4.00073H158.2C158.4 4.00073 158.5 4.10078 158.5 4.30078V14.6008C158.5 14.8008 158.4 14.9008 158.2 14.9008ZM153.9 12.6008C153.9 12.8008 153.8 13.0007 153.8 13.2007C153.7 13.4007 153.7 13.6007 153.6 13.7007C153.5 13.9007 153.4 14.0008 153.3 14.1008C153.2 14.2008 153 14.3008 152.9 14.4008C152.7 14.5008 152.6 14.6008 152.4 14.6008C152.2 14.7008 152 14.7007 151.7 14.7007C151.5 14.7007 151.2 14.7007 150.9 14.7007H147C146.7 14.7007 146.5 14.7007 146.2 14.7007C146 14.7007 145.8 14.6008 145.6 14.6008C145.4 14.5008 145.2 14.5008 145.1 14.4008C144.9 14.3008 144.8 14.2008 144.7 14.1008C144.6 14.0008 144.5 13.8007 144.4 13.7007C144.3 13.5007 144.2 13.4007 144.2 13.2007C144.1 12.8007 144 12.4008 144 11.8008V7.00073C144 6.70073 144 6.50078 144 6.30078C144 6.10078 144.1 5.90074 144.1 5.70074C144.2 5.50074 144.2 5.30074 144.3 5.20074C144.4 5.00074 144.5 4.90078 144.6 4.80078C144.7 4.70078 144.9 4.60073 145 4.50073C145.2 4.40073 145.3 4.30078 145.5 4.30078C145.7 4.20078 145.9 4.20074 146.2 4.20074C146.4 4.20074 146.7 4.20074 147 4.20074H150.9C151.2 4.20074 151.4 4.20074 151.7 4.20074C151.9 4.20074 152.2 4.30078 152.4 4.30078C152.6 4.40078 152.8 4.40073 152.9 4.50073C153.1 4.60073 153.2 4.70078 153.3 4.80078C153.4 4.90078 153.5 5.10074 153.6 5.20074C153.7 5.40074 153.8 5.50074 153.8 5.70074C153.9 6.10074 154 6.50077 154 7.10077V11.9008C154 12.1008 154 12.4008 153.9 12.6008ZM151.1 6.60077C151.1 6.50077 151 6.40078 150.9 6.30078C150.8 6.20078 150.7 6.20077 150.6 6.10077C150.5 6.10077 150.3 6.00073 150.2 6.00073H147.6C147.4 6.00073 147.3 6.00077 147.2 6.10077C147.1 6.10077 147 6.20078 146.9 6.30078C146.8 6.40078 146.8 6.50077 146.7 6.60077C146.7 6.70077 146.6 6.90073 146.6 7.00073V11.8008C146.6 12.0008 146.6 12.1007 146.7 12.2007C146.7 12.3007 146.8 12.4007 146.9 12.5007C147 12.6007 147.1 12.6007 147.2 12.7007C147.3 12.7007 147.5 12.8008 147.6 12.8008H150.2C150.4 12.8008 150.5 12.8007 150.6 12.7007C150.7 12.7007 150.8 12.6007 150.9 12.5007C151 12.4007 151 12.3007 151.1 12.2007C151.1 12.1007 151.2 11.9008 151.2 11.8008V7.00073C151.2 6.90073 151.2 6.70077 151.1 6.60077ZM132.8 4.00073H139C139.3 4.00073 139.5 4.00073 139.8 4.00073C140 4.00073 140.3 4.10077 140.5 4.10077C140.7 4.20077 140.9 4.20078 141 4.30078C141.2 4.40078 141.3 4.50077 141.4 4.60077C141.5 4.70077 141.6 4.90073 141.7 5.00073C141.8 5.20073 141.9 5.30073 141.9 5.50073C142 5.70073 142 5.90074 142 6.20074C142 6.40074 142 6.70073 142 7.00073V8.60077C142 8.90077 142 9.10076 142 9.40076C142 9.60076 141.9 9.90077 141.9 10.1008C141.8 10.3008 141.8 10.5008 141.7 10.6008C141.6 10.8008 141.5 10.9007 141.4 11.0007C141.3 11.1007 141.1 11.2008 141 11.3008C140.8 11.4008 140.7 11.5007 140.5 11.5007C140.3 11.6007 140.1 11.6008 139.8 11.6008C139.6 11.6008 139.3 11.6008 139 11.6008H135.3V14.4008C135.3 14.6008 135.2 14.7007 135 14.7007H132.8C132.6 14.7007 132.5 14.6008 132.5 14.4008V4.10077C132.5 4.20077 132.6 4.00073 132.8 4.00073ZM128.3 0.300781H185.4C185.7 0.300781 185.9 0.500781 185.9 0.800781V18.1008C185.9 18.4008 185.7 18.6008 185.4 18.6008H128.3C128 18.6008 127.8 18.4008 127.8 18.1008V0.800781C127.7 0.500781 128 0.300781 128.3 0.300781Z" fill="#FFCB00"/>
</svg>
