<svg width="14" height="34" viewBox="0 0 14 34" fill="none" xmlns="http://www.w3.org/2000/svg">
<path fill-rule="evenodd" clip-rule="evenodd" d="M2.278 26.1892H4.2471V29.3629H5.72587V33.444H8.27413V29.3629H9.7529V26.1892H11.722C12.9807 26.1892 14 25.1699 14 23.9112V8.11966C14 9.37835 12.9807 10.3977 11.722 10.3977H2.278C1.03089 10.3977 0 9.37835 0 8.11966V23.9112C0 25.1699 1.02703 26.1892 2.278 26.1892ZM12.0965 6.78376V0.525072L10.9691 1.6409H3.04633L1.91892 0.525072V-2.47955e-05V7.88028L3.05792 9.01928H10.9614L12.1004 7.88028V6.78762L12.0965 6.78376ZM3.60618 0.115805H5.59845V0.378354H6.03475V0.115805H6.3861V0.378354H6.8224V0.115805H7.18533V0.378354H7.62162V0.115805H7.98456V0.378354H8.42085V0.115805H10.8069V0.521211L10.4015 0.915033H3.60618L3.20077 0.521211V0.115805H3.60618Z" fill="#275D88"/>
</svg>
