<svg width="30" height="30" viewBox="0 0 30 30" fill="none" xmlns="http://www.w3.org/2000/svg">
<path d="M15 0C12.0333 0 9.13319 0.879734 6.66645 2.52795C4.19971 4.17617 2.27713 6.51885 1.14181 9.25974C0.00649929 12.0006 -0.290551 15.0166 0.288227 17.9263C0.867006 20.8361 2.29562 23.5088 4.3934 25.6066C6.49119 27.7044 9.16393 29.133 12.0736 29.7118C14.9834 30.2905 17.9994 29.9935 20.7403 28.8582C23.4811 27.7229 25.8238 25.8003 27.472 23.3335C29.1203 20.8668 30 17.9667 30 15C30 13.0302 29.612 11.0796 28.8582 9.25974C28.1044 7.43986 26.9995 5.78627 25.6066 4.3934C24.2137 3.00052 22.5601 1.89563 20.7403 1.14181C18.9204 0.387986 16.9698 0 15 0ZM15 27C12.6266 27 10.3065 26.2962 8.33316 24.9776C6.35977 23.659 4.8217 21.7849 3.91345 19.5922C3.0052 17.3995 2.76756 14.9867 3.23058 12.6589C3.69361 10.3311 4.83649 8.19295 6.51472 6.51472C8.19295 4.83649 10.3311 3.6936 12.6589 3.23058C14.9867 2.76755 17.3995 3.00519 19.5922 3.91344C21.7849 4.8217 23.6591 6.35976 24.9776 8.33315C26.2962 10.3065 27 12.6266 27 15C27 18.1826 25.7357 21.2348 23.4853 23.4853C21.2348 25.7357 18.1826 27 15 27Z" fill="#5B5B5B"/>
<path d="M15 6.0001C13.6076 6.0001 12.2723 6.55322 11.2877 7.53779C10.3031 8.52236 9.75 9.85771 9.75 11.2501C9.75 11.6479 9.90804 12.0295 10.1893 12.3108C10.4706 12.5921 10.8522 12.7501 11.25 12.7501C11.6478 12.7501 12.0294 12.5921 12.3107 12.3108C12.592 12.0295 12.75 11.6479 12.75 11.2501C12.75 10.8051 12.882 10.3701 13.1292 10.0001C13.3764 9.63006 13.7278 9.34167 14.139 9.17137C14.5501 9.00107 15.0025 8.95652 15.439 9.04333C15.8754 9.13015 16.2763 9.34444 16.591 9.65911C16.9057 9.97378 17.1199 10.3747 17.2068 10.8111C17.2936 11.2476 17.249 11.7 17.0787 12.1111C16.9084 12.5223 16.62 12.8737 16.25 13.1209C15.88 13.3681 15.445 13.5001 15 13.5001C14.6022 13.5001 14.2206 13.6581 13.9393 13.9394C13.658 14.2207 13.5 14.6023 13.5 15.0001V18.0001C13.5 18.3979 13.658 18.7795 13.9393 19.0608C14.2206 19.3421 14.6022 19.5001 15 19.5001C15.3978 19.5001 15.7794 19.3421 16.0607 19.0608C16.342 18.7795 16.5 18.3979 16.5 18.0001V16.2601C17.7122 15.9061 18.7555 15.1259 19.4377 14.0633C20.12 13.0006 20.3951 11.7272 20.2124 10.4777C20.0297 9.22819 19.4016 8.08683 18.4437 7.26399C17.4858 6.44114 16.2628 5.99226 15 6.0001Z" fill="#5B5B5B"/>
<path d="M15 24C15.8284 24 16.5 23.3284 16.5 22.5C16.5 21.6716 15.8284 21 15 21C14.1716 21 13.5 21.6716 13.5 22.5C13.5 23.3284 14.1716 24 15 24Z" fill="#5B5B5B"/>
</svg>
