<svg width="14" height="35" viewBox="0 0 14 35" fill="none" xmlns="http://www.w3.org/2000/svg">
<g clip-path="url(#clip0_772_25294)">
<path fill-rule="evenodd" clip-rule="evenodd" d="M11.2451 1.36499C11.2451 0.609232 10.6156 0 9.86955 0H4.1421C3.38052 0 2.75493 0.613088 2.75493 1.36499V7.21439C2.75493 7.97014 3.3844 8.59094 4.1421 8.59094H9.86955C10.6195 8.59094 11.2451 7.96629 11.2451 7.21439V1.36499ZM4.2509 30.9205H5.71579V34.9961H8.28032V30.9205H9.74521V27.9129H11.7152C12.9703 27.9129 13.9961 26.8949 13.9961 25.6494V7.92387C13.9845 9.15776 12.9703 10.1757 11.7152 10.1757H2.28088C1.02581 10.1757 0 9.15776 0 7.91231V25.6533C0 26.8988 1.02581 27.9167 2.28088 27.9167H4.2509V30.9243V30.9205ZM4.27422 1.75829H9.72578C9.94727 1.75829 10.1221 1.58477 10.1221 1.36499C10.1221 1.15677 9.94727 0.983254 9.72578 0.983254H4.27422C4.05273 0.983254 3.87788 1.15677 3.87788 1.36499C3.87788 1.58477 4.05273 1.75829 4.27422 1.75829Z" fill="#275D88"/>
</g>
<defs>
<clipPath id="clip0_772_25294">
<rect width="14" height="35" fill="white"/>
</clipPath>
</defs>
</svg>
